<svg width="127" height="87" viewBox="0 0 127 87" fill="none" xmlns="http://www.w3.org/2000/svg">
<path d="M52.4 9.68V66.32H34.64V44.24H17.76V66.32H0V9.68H17.76V30.08H34.64V9.68H52.4Z" fill="#3F3D56"/>
<path d="M69.3506 17.6C66.2573 17.6 63.7773 16.7733 61.9106 15.12C60.044 13.4667 59.1106 11.3867 59.1106 8.88C59.1106 6.32 60.044 4.21333 61.9106 2.56C63.7773 0.853333 66.2573 0 69.3506 0C72.3906 0 74.844 0.853333 76.7106 2.56C78.5773 4.21333 79.5106 6.32 79.5106 8.88C79.5106 11.3867 78.5773 13.4667 76.7106 15.12C74.844 16.7733 72.3906 17.6 69.3506 17.6ZM78.1506 21.2V66.32H60.3906V21.2H78.1506Z" fill="#3F3D56"/>
<path d="M56.968 54.512C61 54.512 64.1173 55.7253 66.32 58.152C68.56 60.5786 69.68 63.864 69.68 68.008V86.32H57.304V69.576C57.304 68.232 56.8933 67.1866 56.072 66.44C55.288 65.656 54.224 65.264 52.88 65.264C51.4987 65.264 50.416 65.656 49.632 66.44C48.848 67.1866 48.456 68.232 48.456 69.576V86.32H36.08V69.576C36.08 68.232 35.6693 67.1866 34.848 66.44C34.064 65.656 33 65.264 31.656 65.264C30.2747 65.264 29.192 65.656 28.408 66.44C27.624 67.1866 27.232 68.232 27.232 69.576V86.32H14.8V54.736H27.232V58.992C28.128 57.648 29.3413 56.5653 30.872 55.744C32.44 54.9226 34.2693 54.512 36.36 54.512C38.6373 54.512 40.6533 55.016 42.408 56.024C44.1627 56.9946 45.5627 58.376 46.608 60.168C47.7653 58.5253 49.24 57.1813 51.032 56.136C52.824 55.0533 54.8027 54.512 56.968 54.512Z" fill="#53D8FB"/>
<path d="M105.642 70.248C105.642 71.1066 105.586 71.928 105.474 72.712H85.4816C85.6683 75.4373 86.807 76.8 88.8976 76.8C90.2416 76.8 91.2123 76.184 91.8096 74.952H104.97C104.522 77.192 103.57 79.208 102.114 81C100.695 82.7546 98.8843 84.1546 96.6816 85.2C94.5163 86.208 92.127 86.712 89.5136 86.712C86.3776 86.712 83.5776 86.0586 81.1136 84.752C78.687 83.4453 76.783 81.5786 75.4016 79.152C74.0576 76.688 73.3856 73.8133 73.3856 70.528C73.3856 67.2426 74.0576 64.3866 75.4016 61.96C76.783 59.496 78.687 57.6106 81.1136 56.304C83.5776 54.9973 86.3776 54.344 89.5136 54.344C92.6496 54.344 95.431 54.9973 97.8576 56.304C100.322 57.5733 102.226 59.4026 103.57 61.792C104.951 64.1813 105.642 67 105.642 70.248ZM93.0416 67.28C93.0416 66.2346 92.7056 65.4506 92.0336 64.928C91.3616 64.368 90.5216 64.088 89.5136 64.088C87.311 64.088 86.023 65.152 85.6496 67.28H93.0416Z" fill="#53D8FB"/>
<path d="M126.317 44.04L124.861 70.584H114.221L112.765 44.04H126.317ZM119.541 86.768C117.376 86.768 115.64 86.1893 114.333 85.032C113.027 83.8746 112.373 82.4186 112.373 80.664C112.373 78.872 113.027 77.3973 114.333 76.24C115.64 75.0453 117.376 74.448 119.541 74.448C121.669 74.448 123.387 75.0453 124.693 76.24C126 77.3973 126.653 78.872 126.653 80.664C126.653 82.4186 126 83.8746 124.693 85.032C123.387 86.1893 121.669 86.768 119.541 86.768Z" fill="#53D8FB"/>
</svg>
